<?xml version="1.0" encoding="iso-8859-1"?>
<!-- Uploaded to: SVG Repo, www.svgrepo.com, Generator: SVG Repo Mixer Tools -->
<svg height="800px" width="800px" version="1.1" id="Layer_1" xmlns="http://www.w3.org/2000/svg" xmlns:xlink="http://www.w3.org/1999/xlink" 
	 viewBox="0 0 511.98 511.98" xml:space="preserve">
<path style="fill:#434A54;" d="M280.97,511.98c-21.444,0-40.428-3.672-56.662-10.969c-38.327-17.233-47.78-48.561-48.155-49.904
	l20.5-5.922l-0.031-0.078c0.297,0.969,7.593,23.749,37.076,36.718c53.772,23.655,135.049-4.688,193.767-32.64
	c5.326-2.531,11.686-0.266,14.217,5.047c2.547,5.327,0.281,11.687-5.047,14.218c-49.95,23.78-94.464,37.968-132.291,42.187
	C296.266,511.543,288.47,511.98,280.97,511.98z"/>
<path style="fill:#F6BB42;" d="M186.404,117.37c-5.89,0-10.671-4.773-10.671-10.671v-53.35c0-5.891,4.781-10.672,10.671-10.672
	c5.891,0,10.672,4.781,10.672,10.672v53.349C197.075,112.597,192.294,117.37,186.404,117.37z"/>
<path style="fill:#FFCE54;" d="M207.747,96.035h-42.686c-5.89,0-10.671,4.773-10.671,10.664v138.713
	c0,5.898,4.781,10.672,10.671,10.672h42.686c5.891,0,10.671-4.773,10.671-10.672V106.698
	C218.418,100.808,213.637,96.035,207.747,96.035z"/>
<path style="fill:#F6BB42;" d="M194.2,205.859c4.156,4.164,4.156,10.922,0,15.094c-4.172,4.164-10.922,4.164-15.093,0
	c-4.172-4.172-4.172-10.93,0-15.094C183.279,201.695,190.029,201.695,194.2,205.859z"/>
<path style="fill:#656D78;" d="M218.637,448.138c0,5.906-4.766,10.688-10.656,10.688h-42.686c-5.89,0-10.671-4.781-10.671-10.688
	v-74.685c0-5.891,4.781-10.656,10.671-10.656h42.686c5.89,0,10.656,4.766,10.656,10.656V448.138z"/>
<g>
	<path style="fill:#434A54;" d="M154.624,426.827v21.312c5.781-0.125,10.437-4.844,10.437-10.656S160.405,426.952,154.624,426.827z"
		/>
	<path style="fill:#434A54;" d="M207.747,437.482c0,5.891,4.781,10.656,10.671,10.656c0.078,0,0.141,0,0.219,0v-21.312
		c-0.078,0-0.141-0.016-0.219-0.016C212.528,426.811,207.747,431.576,207.747,437.482z"/>
</g>
<path style="fill:#5D9CEC;" d="M218.418,234.748h-64.029c-5.891,0-10.671,4.773-10.671,10.664v160.057
	c0,5.891,4.781,10.672,10.671,10.672h64.029c5.891,0,10.671-4.781,10.671-10.672V245.412
	C229.09,239.521,224.309,234.748,218.418,234.748z"/>
<path style="fill:#4A89DC;" d="M239.761,256.084L239.761,256.084H133.046c-5.89,0-10.671-4.773-10.671-10.672
	c0-5.891,4.781-10.664,10.671-10.664l0,0h106.715c5.891,0,10.656,4.773,10.656,10.664
	C250.417,251.31,245.652,256.084,239.761,256.084z"/>
<path style="fill:#AC92EB;" d="M261.323,117.37c0,5.898-4.781,10.671-10.672,10.671c-5.89,0-10.671-4.773-10.671-10.671
	c0-5.89,4.781-10.671,10.671-10.671C256.542,106.698,261.323,111.48,261.323,117.37z"/>
<path style="fill:#A0D468;" d="M133.281,117.37c0,5.898-4.781,10.671-10.671,10.671c-5.89,0-10.671-4.773-10.671-10.671
	c0-5.89,4.78-10.671,10.671-10.671C128.501,106.699,133.281,111.48,133.281,117.37z"/>
<path style="fill:#FC6E51;" d="M197.075,10.671c0,5.891-4.781,10.672-10.672,10.672c-5.89,0-10.671-4.781-10.671-10.672
	S180.513,0,186.404,0C192.294,0,197.075,4.78,197.075,10.671z"/>
<path style="fill:#ED5564;" d="M293.111,21.225h-10.672V10.671C282.439,4.78,277.659,0,271.76,0c-5.891,0-10.672,4.78-10.672,10.671
	v10.555h-10.672c-5.89,0-10.656,4.781-10.656,10.671c0,5.898,4.766,10.671,10.656,10.671h10.672V53.24
	c0,5.891,4.781,10.671,10.672,10.671c5.898,0,10.679-4.78,10.679-10.671V42.568h10.672c5.89,0,10.671-4.773,10.671-10.671
	C303.782,26.007,299.001,21.225,293.111,21.225z"/>
<path style="fill:#FFCE54;" d="M122.609,42.623h-10.671V32.069c0-5.898-4.781-10.671-10.672-10.671
	c-5.89,0-10.671,4.773-10.671,10.671v10.554H79.924c-5.891,0-10.672,4.781-10.672,10.672s4.781,10.671,10.672,10.671h10.671v10.671
	c0,5.891,4.781,10.672,10.671,10.672c5.891,0,10.672-4.781,10.672-10.672V63.966h10.671c5.891,0,10.671-4.78,10.671-10.671
	S128.5,42.623,122.609,42.623z"/>
</svg>